PathFileType	4	(X/Y/Z)	C:/Users/opensim2020/Desktop/walking_exp_matlab/subject02_walking07_straight_03.trc																																																																																																																																																				
DataRate	CameraRate	NumFrames	NumMarkers	Units	OrigDataRate	OrigDataStartFrame	OrigNumFrames																																																																																																																																																
100	100	8	50	mm	100	2145	203																																																																																																																																																
Frame#	Time	LFHD			RFHD			LBHD			RBHD			C7			T10			CLAV			STRN			RBAK			LSHO			LUPA			LELB			LFRM			LWRA			LWRB			LFIN			RSHO			RUPA			RELB			RFRM			RWRA			RWRB			RFIN			LASI			RASI			LPSI			RPSI			LTHI			LKNE			LTIB			LANK			LHEE			LTOE			RTHI			RKNE			RTIB			RANK			RHEE			RTOE			*39			*40			*41			*42			*43			*44			*45			*46			*47			*48			*49		
		X1	Y1	Z1	X2	Y2	Z2	X3	Y3	Z3	X4	Y4	Z4	X5	Y5	Z5	X6	Y6	Z6	X7	Y7	Z7	X8	Y8	Z8	X9	Y9	Z9	X10	Y10	Z10	X11	Y11	Z11	X12	Y12	Z12	X13	Y13	Z13	X14	Y14	Z14	X15	Y15	Z15	X16	Y16	Z16	X17	Y17	Z17	X18	Y18	Z18	X19	Y19	Z19	X20	Y20	Z20	X21	Y21	Z21	X22	Y22	Z22	X23	Y23	Z23	X24	Y24	Z24	X25	Y25	Z25	X26	Y26	Z26	X27	Y27	Z27	X28	Y28	Z28	X29	Y29	Z29	X30	Y30	Z30	X31	Y31	Z31	X32	Y32	Z32	X33	Y33	Z33	X34	Y34	Z34	X35	Y35	Z35	X36	Y36	Z36	X37	Y37	Z37	X38	Y38	Z38	X39	Y39	Z39	X40	Y40	Z40	X41	Y41	Z41	X42	Y42	Z42	X43	Y43	Z43	X44	Y44	Z44	X45	Y45	Z45	X46	Y46	Z46	X47	Y47	Z47	X48	Y48	Z48	X49	Y49	Z49	X50	Y50	Z50
																																																																																																																																																							
153	1.52	501.24945	1746.16455	1385.9198	522.71606	1727.33215	1527.10583	400.90872	1633.67322	1387.375	410.66974	1609.50879	1528.35596	379.67419	1505.61914	1454.89307	339.25504	1230.99268	1462.18225	522.9671	1443.66309	1432.1571	582.02216	1274.00012	1447.82947	334.05884	1335.27063	1525.77673	436.55682	1476.71204	1268.80957	378.59485	1282.02747	1197.8728	345.32327	1145.55981	1196.89819	317.10294	1017.34778	1184.02466	339.84964	878.84198	1207.92041	292.62463	896.48291	1181.21094	288.41141	828.56982	1180.03381	477.51331	1481.83923	1633.16455	501.82401	1294.74365	1726.01501	567.13458	1162.46375	1751.8092	652.53772	1075.01001	1761.64392	755.3623	992.41162	1731.12671	721.55865	964.53467	1767.96863	787.039	934.17279	1764.59485	588.2002	979.25714	1337.13831	566.91418	955.42059	1594.99609	370.90103	1014.2417	1398.62866	355.77634	1013.26672	1511.98633	588.86768	675.50195	1272.88867	610.03571	476.35663	1313.60571	605.04407	281.66718	1323.37122	661.72015	69.05175	1360.53796	635.46429	42.8754	1416.79199	817.3786	45.24696	1336.39758	420.83963	659.93127	1640.76221	371.02527	456.74445	1603.37964	249.93562	309.75525	1589.07874	154.54045	143.33975	1542.25391	111.51549	106.58357	1479.65894	273.91916	36.91651	1568.41846	394.12302	1774.30042	1488.14685	2845.17969	1033.99841	-3360.26343	NaN	NaN	NaN	NaN	NaN	NaN	NaN	NaN	NaN	NaN	NaN	NaN	NaN	NaN	NaN	NaN	NaN	NaN	NaN	NaN	NaN	NaN	NaN	NaN	NaN	NaN	NaN
154	1.53	510.07553	1747.05811	1384.56409	531.60651	1727.98328	1525.73352	409.72314	1634.57947	1385.92139	419.41257	1610.15442	1526.54895	388.93085	1506.20447	1453.02856	349.46753	1231.11108	1460.91382	531.9267	1444.57825	1430.64783	591.43384	1275.06348	1445.90417	343.70322	1335.26599	1524.08972	445.64459	1476.94812	1266.72144	389.70355	1281.31274	1195.92896	357.92365	1144.54846	1195.05005	331.11981	1015.98584	1182.25439	356.04721	877.90436	1206.36157	308.82465	894.75568	1179.41248	305.57257	826.88696	1178.16956	486.46326	1482.09619	1632.16187	509.40649	1293.85352	1723.83679	574.19708	1161.45129	1749.75293	658.77991	1073.35583	1760	760.38818	989.32806	1729.04626	726.29584	961.85785	1765.90979	791.48535	930.70789	1762.45422	599.72766	980.5401	1334.95459	579.17102	955.68353	1592.7113	382.12439	1015.84015	1396.36987	367.40225	1013.21509	1510.03198	598.69293	676.99756	1271.77734	622.00385	478.36026	1312.3114	614.50519	283.31461	1317.41345	663.02191	70.35458	1360.46069	635.69855	43.40455	1415.96838	818.93042	44.0969	1338.44788	433.21811	660.16565	1639.80261	384.51511	457.31006	1605.4093	259.7099	313.74805	1590.41284	159.97552	149.9124	1543.84058	116.84023	115.17831	1480.78833	274.57523	36.93651	1568.84973	403.17853	1775.34204	1487.04077	2845.05884	1034.19324	-3360.17261	NaN	NaN	NaN	NaN	NaN	NaN	NaN	NaN	NaN	NaN	NaN	NaN	NaN	NaN	NaN	NaN	NaN	NaN	NaN	NaN	NaN	NaN	NaN	NaN	NaN	NaN	NaN
155	1.54	518.79529	1748.13562	1383.15283	540.52539	1728.73303	1524.3468	418.30273	1635.92419	1384.47266	428.19583	1610.96826	1524.96655	397.46387	1507.35632	1451.79785	359.6123	1231.50012	1459.7179	540.74072	1445.66919	1429.16541	601.21521	1276.52747	1444.1748	353.07101	1335.35828	1522.31445	455.15594	1477.6676	1265.04089	400.59775	1281.51794	1194.56482	370.86633	1144.00269	1193.14551	345.87766	1014.93182	1180.42871	372.59244	877.57336	1205.03845	325.15887	893.67267	1177.96277	323.1456	825.79547	1176.40356	495.71658	1482.55945	1631.16113	516.86841	1293.54675	1721.73706	581.27838	1161.08508	1747.93018	664.46851	1071.67053	1757.91431	764.94983	986.39496	1727.14929	730.5437	959.36493	1764.00696	795.22235	927.3089	1760.45215	610.82037	982.15729	1332.7135	590.79767	956.17474	1590.0376	392.71719	1018.07928	1394.44189	378.86438	1013.97827	1508.60938	608.95441	678.76477	1271.4563	633.24231	479.61346	1311.30273	622.07104	284.86844	1314.90186	665.61108	71.22028	1359.93579	636.00195	43.79108	1415.35168	820.79663	43.07858	1340.60486	446.5495	660.88348	1639.35986	399.4924	457.96765	1608.00562	270.95798	317.75583	1592.17651	166.71338	156.84645	1545.43347	123.48174	124.66119	1481.87891	275.51248	36.92891	1569.16895	411.89264	1776.25928	1485.62146	2845.13232	1033.90588	-3360.2312	NaN	NaN	NaN	NaN	NaN	NaN	NaN	NaN	NaN	NaN	NaN	NaN	NaN	NaN	NaN	NaN	NaN	NaN	NaN	NaN	NaN	NaN	NaN	NaN	NaN	NaN	NaN
156	1.55	527.76776	1749.06335	1381.75098	549.41406	1729.55969	1522.88867	427.19977	1636.90283	1382.86609	437.14746	1611.93628	1523.68835	406.88538	1508.30115	1450.68164	369.53665	1231.43042	1458.34631	549.66437	1446.8385	1427.7854	611.20703	1278.12598	1442.52905	362.35938	1335.39307	1520.70642	464.35205	1478.43567	1263.29102	413.90643	1280.94836	1192.69019	384.31543	1143.47021	1191.09534	361.58038	1013.95172	1178.52893	390.42615	877.12982	1203.1814	342.7045	892.3728	1176.02319	341.75217	824.5849	1174.48059	505.03812	1483.41687	1629.77856	524.47211	1293.86487	1719.82751	587.85419	1160.71814	1745.64404	669.91089	1070.31848	1755.81555	769.03625	983.26398	1725.03711	734.24377	957.10181	1762.19104	798.20514	923.72736	1758.47229	621.44415	984.00488	1330.27979	602.83704	957.1485	1587.09705	403.64539	1019.72253	1392.46558	390.91833	1014.63751	1507.25427	620.39764	679.89948	1270.85547	643.42151	480.44141	1310.72107	628.93774	285.66599	1314.21484	666.78882	70.8648	1359.86328	636.09857	43.65054	1414.8302	821.70123	42.15652	1341.14624	460.08878	661.05176	1638.59424	415.46548	458.26923	1610.74927	283.6355	321.71622	1594.35913	174.96811	164.14345	1547.18921	131.79868	134.46182	1482.80518	276.5354	36.74348	1569.19568	420.86725	1777.17896	1484.22839	2845.75073	1034.19714	-3357.39429	NaN	NaN	NaN	NaN	NaN	NaN	NaN	NaN	NaN	NaN	NaN	NaN	NaN	NaN	NaN	NaN	NaN	NaN	NaN	NaN	NaN	NaN	NaN	NaN	NaN	NaN	NaN
157	1.56	536.58447	1750.02002	1380.2627	558.30017	1730.37732	1521.38501	435.89923	1638.04956	1381.39355	445.68292	1612.86304	1521.90149	415.49161	1509.10852	1449.71704	379.51309	1231.88501	1457.34973	558.53528	1448.07263	1426.46265	621.00635	1279.72632	1440.84033	372.09393	1335.80005	1519.74475	473.73221	1479.63428	1262.07104	425.13678	1281.3761	1190.50525	398.02753	1143.34302	1189.08765	376.86166	1013.70392	1176.47778	408.5141	877.12726	1201.62476	360.84167	891.57861	1174.00183	361.13007	823.72223	1172.49475	514.43091	1484.61389	1628.63049	531.94348	1294.38733	1717.70068	594.53925	1160.75867	1743.27148	674.97272	1068.97498	1753.61621	772.38477	980.1875	1722.71729	737.35144	954.76392	1760.3717	800.76801	920.44678	1756.72754	631.9043	986.36377	1327.90967	614.45648	958.32489	1583.87439	414.14749	1021.25977	1390.7262	402.60867	1015.58295	1506.04102	632.18976	680.65112	1269.94385	652.14081	480.8981	1309.97949	634.2182	286.43454	1313.3479	667.51733	71.01832	1359.99817	636.31152	43.76657	1414.71008	822.42877	41.60719	1341.48608	474.48447	661.37787	1638.34656	432.63675	458.33838	1613.71619	297.61292	325.51138	1596.82605	184.88396	171.70306	1549.23718	141.69525	144.54681	1483.97656	278.23264	37.16745	1569.42603	429.78638	1778.2334	1482.77893	2845.25708	1033.75024	-3360.302	NaN	NaN	NaN	NaN	NaN	NaN	NaN	NaN	NaN	NaN	NaN	NaN	NaN	NaN	NaN	NaN	NaN	NaN	NaN	NaN	NaN	NaN	NaN	NaN	NaN	NaN	NaN
158	1.57	545.50232	1750.92749	1378.80457	567.21301	1731.19666	1519.85254	444.60248	1639.10547	1379.87012	454.40842	1613.94006	1520.125	424.1333	1509.401	1448.45337	389.27704	1232.25659	1456.12341	567.43427	1449.33142	1425.17834	630.7627	1281.23206	1439.14453	381.43546	1336.16846	1518.58386	482.76141	1480.82324	1260.86841	436.99731	1281.66248	1188.65833	411.92059	1143.38928	1187.00586	393.79849	1013.19464	1174.46082	427.08173	877.40857	1200.08508	379.63245	890.98267	1171.776	380.92545	823.16095	1170.53979	523.45215	1485.73621	1627.16663	539.5766	1295.23096	1715.63733	601.25922	1161.21667	1741.12024	679.83771	1067.97412	1751.55286	775.50653	977.11426	1720.75122	740.0788	952.48065	1758.50818	802.76056	916.89832	1754.9574	642.09045	989.00256	1325.53455	625.88104	959.65045	1580.42407	424.53076	1022.58167	1389.12817	413.96063	1016.55304	1504.86194	644.0567	681.22864	1268.6145	659.45398	480.96985	1309.01892	637.06342	286.67465	1312.91516	668.1825	71.06512	1360.20691	636.43433	44.2344	1414.98596	823.22443	41.19152	1342.00574	489.20163	661.28143	1638.22302	450.78009	458.23145	1616.60156	312.69916	329.18616	1599.53137	196.31325	179.00444	1551.42371	153.1705	154.85666	1485.5166	280.17905	37.1783	1568.85608	438.77762	1779.28406	1481.24451	2845.125	1034.07495	-3360.35059	NaN	NaN	NaN	NaN	NaN	NaN	NaN	NaN	NaN	NaN	NaN	NaN	NaN	NaN	NaN	NaN	NaN	NaN	NaN	NaN	NaN	NaN	NaN	NaN	NaN	NaN	NaN
159	1.58	554.45862	1751.7594	1377.25061	576.11981	1732.01013	1518.27258	453.18576	1639.99622	1378.17004	463.12802	1615.0957	1519.16919	432.72516	1509.72327	1447.40869	398.81003	1232.68286	1454.83337	576.37012	1450.56653	1423.9281	640.42645	1282.66174	1437.52588	390.86029	1336.40979	1517.4917	491.65118	1482.078	1259.78271	449.0007	1282.16211	1186.8916	426.07843	1143.56665	1184.93066	410.66132	1013.36792	1172.65076	446.29077	877.97614	1198.32227	398.7887	890.56653	1169.51843	401.52795	822.75787	1168.45093	532.12164	1486.96497	1625.72119	547.25201	1296.03809	1713.49683	607.46606	1161.4425	1738.79016	684.52783	1066.91052	1749.63342	778.23834	973.93433	1718.80676	742.61169	950.35358	1757.09839	804.422	913.28711	1753.16174	652.02222	991.59082	1323.16882	636.17249	960.96393	1576.1217	434.62592	1023.38593	1387.4801	424.71323	1017.41315	1503.6499	654.81323	681.9549	1267.39502	665.28326	480.90561	1307.78003	638.90411	286.9404	1313.71643	668.50891	71.1257	1360.46655	636.59692	44.36314	1415.17078	823.72583	40.81357	1342.1676	504.35431	660.55768	1638.04333	469.77252	457.70502	1619.04321	328.98071	332.72012	1602.43958	209.11816	185.70441	1553.72534	165.93538	165.12872	1487.67358	282.85712	37.463	1567.5575	447.93549	1780.55237	1480.0011	2845.22241	1033.97522	-3360.42261	NaN	NaN	NaN	NaN	NaN	NaN	NaN	NaN	NaN	NaN	NaN	NaN	NaN	NaN	NaN	NaN	NaN	NaN	NaN	NaN	NaN	NaN	NaN	NaN	NaN	NaN	NaN
160	1.59	563.32861	1752.50708	1375.63708	585.0332	1732.83484	1516.78223	461.89688	1641.16724	1376.95178	471.82617	1616.24438	1517.58215	441.09921	1509.92834	1446.1123	407.74329	1233.20166	1453.49707	585.35162	1451.8175	1422.83545	649.84387	1283.92261	1435.9834	400.28635	1337.0061	1516.80457	500.3656	1483.34326	1258.80493	461.46655	1282.70435	1185.28137	440.39401	1143.80811	1182.74927	427.98602	1013.10742	1170.41296	465.92395	878.63422	1196.67773	418.51733	890.24835	1167.29675	422.66772	822.46497	1166.37158	540.65167	1488.16711	1624.42883	555.21594	1296.98621	1711.86267	613.75055	1161.89868	1736.7843	688.97797	1065.81445	1747.6311	780.62952	970.67456	1716.97974	744.91449	948.23108	1755.67603	805.88855	909.57538	1751.52856	661.54669	993.87323	1320.83948	646.15607	961.82196	1572.40112	444.66089	1024.36572	1386.21399	434.93137	1018.25641	1502.51721	664.27167	682.92078	1265.83093	669.69299	480.76004	1306.38013	639.77991	287.138	1314.4115	668.49817	70.83391	1360.58533	636.65631	44.22666	1415.5332	823.75928	40.45409	1341.90356	519.99982	659.5788	1638.08813	488.97891	456.75903	1620.78308	346.53995	335.74118	1605.10181	223.43529	192.04405	1556.453	179.39703	174.98021	1490.16333	287.3143	39.03632	1566.35583	456.82523	1781.58813	1478.20471	2845.17822	1033.91724	-3360.37012	NaN	NaN	NaN	NaN	NaN	NaN	NaN	NaN	NaN	NaN	NaN	NaN	NaN	NaN	NaN	NaN	NaN	NaN	NaN	NaN	NaN	NaN	NaN	NaN	NaN	NaN	NaN
